Highknee.mot			
version=1			
nRows=100			
nColumns=4			
inDegrees=yes			
			
# SIMM Motion File Header:			
Highknee.mot			
datacolumns 4			
datarows 100			
otherdata 1			
range 0.000000 1.000000			
endheader			
time	hip_flexion_r	knee_angle_r	ankle_angle_r
0	5.783766404	-9.319991804	5.425572625
0.01010101	5.917966231	-9.434464006	5.455140954
0.02020202	6.062458055	-9.553835385	5.486764625
0.03030303	6.218885225	-9.679674778	5.520889946
0.04040404	6.388818034	-9.813764676	5.557995057
0.050505051	6.573693983	-9.958070804	5.598579124
0.060606061	6.774766335	-10.11470731	5.64315121
0.070707071	6.993064342	-10.28589895	5.692219392
0.080808081	7.2293679	-10.47394157	5.746280605
0.090909091	7.484198592	-10.68116237	5.805811703
0.101010101	7.757828072	-10.90988098	5.87126212
0.111111111	8.050303648	-11.16237236	5.943048458
0.121212121	8.36148976	-11.44083245	6.021551221
0.131313131	8.691122912	-11.74734671	6.107113796
0.141414141	9.038876635	-12.08386211	6.200043664
0.151515152	9.404432252	-12.45216242	6.300615697
0.161616162	9.787550768	-12.85384683	6.409077256
0.171717172	10.18814109	-13.29031172	6.525654681
0.181818182	10.60632004	-13.76273568	6.650560648
0.191919192	11.04246032	-14.27206774	6.784001799
0.202020202	11.49722341	-14.81901915	6.92618597
0.212121212	11.97157569	-15.40405889	7.077328369
0.222222222	12.46678709	-16.02741345	7.237656075
0.232323232	12.98441289	-16.68907102	7.407410366
0.242424242	13.52626017	-17.38879015	7.586846496
0.252525253	14.09434109	-18.12611253	7.776230771
0.262626263	14.69081561	-18.90037936	7.97583494
0.272727273	15.31792626	-19.71075009	8.185928137
0.282828283	15.97792742	-20.55622288	8.406766719
0.292929293	16.67301116	-21.4356555	8.63858243
0.303030303	17.40523129	-22.34778661	8.881569304
0.313131313	18.17642714	-23.29125737	9.13586967
0.323232323	18.98814846	-24.26463396	9.401559642
0.333333333	19.84158326	-25.26643187	9.678634481
0.343434343	20.73749153	-26.29514252	9.966994366
0.353535354	21.6761481	-27.3492623	10.2664312
0.363636364	22.65729949	-28.42732355	10.5766172
0.373737374	23.68013955	-29.52792613	10.897096
0.383838384	24.74330871	-30.6497682	11.227277
0.393939394	25.84492022	-31.79167426	11.56643334
0.404040404	26.98261492	-32.95261873	11.91370407
0.414141414	28.15364276	-34.13174337	12.26810049
0.424242424	29.35496654	-35.32836674	12.62851664
0.434343434	30.58338	-36.54198421	12.99374365
0.444444444	31.83563069	-37.77225693	13.36248752
0.454545455	33.10853744	-39.01898893	13.73338953
0.464646465	34.39909324	-40.28209181	14.10504876
0.474747475	35.70454658	-41.56153795	14.4760457
0.484848485	37.02245721	-42.85730391	14.84496612
0.494949495	38.35072517	-44.16930736	15.210424
0.505050505	39.68759431	-45.49734142	15.57108238
0.515151515	41.03163362	-46.84101113	15.92567079
0.525252525	42.38170074	-48.19967649	16.27299824
0.535353535	43.73689298	-49.57240601	16.61196072
0.545454545	45.09649141	-50.95794374	16.94154262
0.555555556	46.4599031	-52.35469166	17.26081163
0.565656566	47.82660575	-53.76070825	17.56890745
0.575757576	49.19609765	-55.17372359	17.86502474
0.585858586	50.56785364	-56.59117006	18.14839142
0.595959596	51.94128629	-58.01022659	18.41824377
0.606060606	53.31571011	-59.42787329	18.67379994
0.616161616	54.6903062	-60.84095206	18.91423379
0.626262626	56.06408561	-62.24622915	19.13865077
0.636363636	57.43585123	-63.64045579	19.34606767
0.646464646	58.80415982	-65.02042413	19.53539765
0.656565657	60.16728721	-66.38301586	19.70544197
0.666666667	61.52320051	-67.72524158	19.85488945
0.676767677	62.86954096	-69.04426903	19.98232409
0.686868687	64.20362039	-70.33743908	20.08624142
0.696969697	65.52243336	-71.60226956	20.16507342
0.707070707	66.82268559	-72.83644807	20.21722164
0.717171717	68.10083827	-74.03781652	20.24109799
0.727272727	69.35316674	-75.20435081	20.23517229
0.737373737	70.57583059	-76.33413952	20.19802548
0.747474747	71.764952	-77.4253656	20.12840737
0.757575758	72.91669811	-78.476294	20.02529736
0.767676768	74.02736405	-79.48526734	19.88796651
0.777777778	75.09345303	-80.45071051	19.71603913
0.787878788	76.1117511	-81.37114407	19.50955168
0.797979798	77.07939459	-82.24520524	19.26900678
0.808080808	77.99392897	-83.07167521	18.9954197
0.818181818	78.8533581	-83.84951076	18.69035494
0.828282828	79.65618337	-84.57787841	18.35595023
0.838383838	80.40143201	-85.25618939	17.99492545
0.848484848	81.08867414	-85.88413356	17.61057449
0.858585859	81.71802827	-86.46171078	17.20673788
0.868686869	82.29015502	-86.98925794	16.78775519
0.878787879	82.80623911	-87.46747021	16.35839628
0.888888889	83.26796033	-87.8974147	15.92377174
0.898989899	83.67745396	-88.28053521	15.48922379
0.909090909	84.0372622	-88.61864653	15.06019956
0.919191919	84.35027781	-88.91391764	14.64211015
0.929292929	84.61968178	-89.16884321	14.24017918
0.939393939	84.84887689	-89.38620375	13.85928589
0.949494949	85.04141916	-89.5690155	13.50380819
0.95959596	85.2009489	-89.72047142	13.17747219
0.96969697	85.33112345	-89.84387588	12.8832154
0.97979798	85.43555318	-89.94257531	12.62307114
0.98989899	85.51774219	-90.01988795	12.3980822
1	85.58103502	-90.07903558	12.20825192
